:version 1.10
:name ASF
:units
  mass 1
  length 1
  angle deg
:documentation
  ASF file generated by Kaydara
:root
  axis xyz
  order  tx ty tz rx ry rz
  position 0 0 0
  orientation 0 0 0
:bonedata
  begin
    id 1
    name SpineDummy
    direction 0.999998 -0.00179978 1.38929e-006
    length 3.60008
    axis 0 0 0 xyz
  end
  begin
    id 2
    name Spine
    direction 0.964365 0.262802 0.0305839
    length 8.13928
    axis 1.33928 -1.75354 15.2838 xyz
    dof rx ry rz
  end
  begin
    id 3
    name Spine1
    direction 0.811168 0.572065 0.12144
    length 7.14954
    axis 2.2224 -6.9761 35.2157 xyz
    dof rx ry rz
  end
  begin
    id 4
    name Neck
    direction 0 0 0
    length 0
    axis 2.2224 -6.9761 35.2157 xyz
    dof rx ry rz
  end
  begin
    id 5
    name HeadDummy
    direction 0.810939 0.572387 0.121455
    length 3.55534
    axis 2.2224 -6.9761 35.2157 xyz
  end
  begin
    id 6
    name Head
    direction 0.998226 -0.000232542 0.0595419
    length 7.35666
    axis -3.03688 -3.41352 -0.0133467 xyz
    dof rx ry rz
  end
  begin
    id 7
    name R_ClavicleDummy
    direction 0.531669 -0.194489 -0.824319
    length 2.49392
    axis 2.2224 -6.9761 35.2157 xyz
  end
  begin
    id 8
    name R_Clavicle
    direction -0.155119 0.0480802 -0.986725
    length 4.485
    axis -54.2764 80.6538 162.779 xyz
    dof rx ry rz
  end
  begin
    id 9
    name R_UpperArm
    direction -0.955567 0.200068 -0.216484
    length 10.1122
    axis -72.9943 12.5026 168.175 xyz
    dof rx ry rz
  end
  begin
    id 10
    name R_Forearm
    direction -0.61433 0.385743 0.688332
    length 9.39148
    axis -117.015 -43.4982 147.875 xyz
    dof rx ry rz
  end
  begin
    id 11
    name R_Hand
    direction -0.699429 0.0170333 0.714499
    length 3.66324
    axis -45.0303 -36.7097 175.478 xyz
    dof rx ry rz
  end
  begin
    id 12
    name L_ClavicleDummy
    direction 0.40287 -0.36502 0.839319
    length 2.49392
    axis 2.2224 -6.9761 35.2157 xyz
  end
  begin
    id 13
    name L_Clavicle
    direction -0.231271 -0.0726419 0.970174
    length 4.485
    axis 18.4357 -75.9711 -162.563 xyz
    dof rx ry rz
  end
  begin
    id 14
    name L_UpperArm
    direction -0.917494 0.144359 0.370629
    length 10.1122
    axis 56.0417 -21.7544 171.058 xyz
    dof rx ry rz
  end
  begin
    id 15
    name L_Forearm
    direction -0.496786 0.615074 -0.612281
    length 9.39148
    axis 89.8094 37.7546 128.927 xyz
    dof rx ry rz
  end
  begin
    id 16
    name L_Hand
    direction -0.409932 0.64962 -0.640274
    length 3.66324
    axis -0.424369 32.133 128.52 xyz
    dof rx ry rz
  end
  begin
    id 17
    name L_ThighDummy
    direction -1.84081e-006 1.87549e-006 1
    length 3.13049
    axis 0 0 0 xyz
  end
  begin
    id 18
    name L_Thigh
    direction -0.947739 0.307978 0.083308
    length 17.9961
    axis 173.219 -4.77873 161.998 xyz
    dof rx ry rz
  end
  begin
    id 19
    name L_Calf
    direction -0.728814 -0.684427 0.0197583
    length 13.3367
    axis 167.331 -1.13214 -136.799 xyz
    dof rx ry rz
  end
  begin
    id 20
    name L_Foot
    direction -0.9028 0.418719 0.0981191
    length 5.8674
    axis 163.436 11.5135 -155.37 xyz
    dof rx ry rz
  end
  begin
    id 21
    name L_Toe0
    direction -0.35341 0.886259 0.299411
    length 4.75286
    axis 169.316 -17.4222 111.74 xyz
    dof rx ry rz
  end
  begin
    id 22
    name R_ThighDummy
    direction 9.32778e-007 -8.82053e-007 -1
    length 3.13049
    axis 0 0 0 xyz
  end
  begin
    id 23
    name R_Thigh
    direction -0.925064 0.37528 -0.0585023
    length 17.9961
    axis -178.698 3.35385 157.919 xyz
    dof rx ry rz
  end
  begin
    id 24
    name R_Calf
    direction -0.68969 -0.718776 -0.0876886
    length 13.3367
    axis -160.504 5.03065 -133.817 xyz
    dof rx ry rz
  end
  begin
    id 25
    name R_Foot
    direction -0.857405 0.418858 -0.299022
    length 5.8674
    axis -161.328 4.38911 -154.413 xyz
    dof rx ry rz
  end
  begin
    id 26
    name R_Toe0
    direction -0.100745 0.952789 -0.286433
    length 4.75286
    axis 171.683 16.6445 96.0359 xyz
    dof rx ry rz
  end
:hierarchy
  begin
    root SpineDummy L_ThighDummy R_ThighDummy
    SpineDummy Spine
    Spine Spine1
    Spine1 Neck
    Neck HeadDummy R_ClavicleDummy L_ClavicleDummy
    HeadDummy Head
    R_ClavicleDummy R_Clavicle
    R_Clavicle R_UpperArm
    R_UpperArm R_Forearm
    R_Forearm R_Hand
    L_ClavicleDummy L_Clavicle
    L_Clavicle L_UpperArm
    L_UpperArm L_Forearm
    L_Forearm L_Hand
    L_ThighDummy L_Thigh
    L_Thigh L_Calf
    L_Calf L_Foot
    L_Foot L_Toe0
    R_ThighDummy R_Thigh
    R_Thigh R_Calf
    R_Calf R_Foot
    R_Foot R_Toe0
  end

:SAMPLES-PER-SECOND 30
:FULLY-SPECIFIED
:DEGREES
103
root  -3.47903 31.5864 -1.62521 -51.3517 2.511 84.9123
Spine  1.47357 3.5677 2.24524
Spine1  0.816156 -3.63954 -1.1486
Neck  3.97569e-016 0 -2.38542e-015
Head  -29.9638 6.4565 28.3833
R_Clavicle  0.287231 -16.3263 -0.341159
R_UpperArm  32.519 6.87498 44.7731
R_Forearm  -17.1072 -49.4742 29.7478
R_Hand  1.45163 8.15216 -0.364877
L_Clavicle  -0.254858 10.0029 -0.485
L_UpperArm  -16.7713 -11.2441 4.18085
L_Forearm  -24.0473 10.0055 11.7461
L_Hand  -0.164323 10.9042 -0.902725
L_Thigh  -9.03667 -10.969 5.17272
L_Calf  -4.03802 -2.0288 15.1232
L_Foot  4.99932 14.4227 4.47593
L_Toe0  1.67073 -0.018222 -4.716
R_Thigh  3.5225 1.02539 3.46567
R_Calf  -3.32353 -8.53519 -27.7091
R_Foot  1.97952 7.3233 3.42713
R_Toe0  -1.78853 -0.272788 -17.3235
104
root  -4.17241 32.0025 -1.07204 -58.0528 1.48943 84.4299
Spine  -0.581818 -0.313881 0.89237
Spine1  -0.52809 0.671026 -2.08242
Neck  3.97569e-016 0 -2.38542e-015
Head  -22.5326 4.82768 30.0773
R_Clavicle  0.26073 -15.3641 -0.413535
R_UpperArm  28.3727 5.6162 49.7035
R_Forearm  -7.34094 -46.3928 24.7378
R_Hand  1.0962 6.24452 -0.469414
L_Clavicle  -0.145739 7.0849 -0.644907
L_UpperArm  -30.6923 -13.6576 6.99161
L_Forearm  -26.0391 7.64297 8.90409
L_Hand  -0.158568 11.1017 -0.846935
L_Thigh  -0.627741 -11.4415 2.97092
L_Calf  -1.92897 -1.53606 11.3914
L_Foot  3.67588 10.963 3.32606
L_Toe0  2.69624 -0.110026 -3.60461
R_Thigh  2.00463 5.77008 6.00068
R_Calf  -8.64089 -5.36802 -16.938
R_Foot  2.17478 7.97216 3.85682
R_Toe0  -1.78853 -0.272788 -17.3235
105
root  -4.87978 32.1363 -0.466619 -65.3235 0.460878 84.3646
Spine  -2.31675 -3.65113 0.166776
Spine1  -1.83233 4.97011 -3.36807
Neck  3.97569e-016 0 -2.38542e-015
Head  -15.3329 3.74582 30.3286
R_Clavicle  0.268251 -13.7484 0.165079
R_UpperArm  17.2282 6.4446 55.5663
R_Forearm  11.0554 -38.4227 20.2553
R_Hand  0.714915 4.32127 -0.811303
L_Clavicle  -0.135168 4.85694 0.0151307
L_UpperArm  -42.3127 -17.474 10.2878
L_Forearm  -27.9275 5.83984 6.77214
L_Hand  -0.230877 10.9679 -1.35684
L_Thigh  2.78204 -10.366 0.605516
L_Calf  -4.93175 -0.622214 4.48852
L_Foot  4.76452 12.3596 5.58683
L_Toe0  -1.88343 0.100013 -5.18587
R_Thigh  0.433126 9.01445 7.93347
R_Calf  -10.0816 -0.864128 -2.69145
R_Foot  2.15657 8.0207 4.60299
R_Toe0  -1.78853 -0.272788 -17.3235
106
root  -5.55612 32.0517 0.204065 -72.0096 -0.153045 84.7242
Spine  -3.80239 -5.91796 -0.4592
Spine1  -3.25623 8.67743 -4.72279
Neck  3.97569e-016 0 -2.38542e-015
Head  -9.21383 2.98693 30.2255
R_Clavicle  0.352589 -12.4478 1.36916
R_UpperArm  3.84922 9.09736 62.5283
R_Forearm  30.4474 -27.0249 19.6708
R_Hand  0.343238 3.08859 -2.52111
L_Clavicle  -0.245799 3.99432 1.27022
L_UpperArm  -51.0799 -23.8764 13.1538
L_Forearm  -27.467 4.95496 5.73556
L_Hand  -0.269727 10.7902 -1.64797
L_Thigh  2.043 -7.30446 -2.78418
L_Calf  -8.6457 -0.12461 0.651732
L_Foot  4.46415 11.3512 5.52064
L_Toe0  -5.22331 0.407777 -2.28163
R_Thigh  -0.789993 11.3451 8.62723
R_Calf  -9.73251 4.54623 14.2976
R_Foot  1.54604 6.5049 6.2832
R_Toe0  -1.78853 -0.272788 -17.3235
107
root  -6.24583 31.7525 0.805796 -77.4817 -0.629929 84.4481
Spine  -5.47111 -7.97622 -1.12007
Spine1  -4.93775 11.6696 -5.51038
Neck  3.97569e-016 0 -2.38542e-015
Head  -3.6002 1.46376 30.2071
R_Clavicle  0.464458 -10.3193 2.54117
R_UpperArm  5.90635 11.5815 69.1661
R_Forearm  35.0887 -20.4534 18.5301
R_Hand  -0.0633384 2.54156 -6.36172
L_Clavicle  -0.445065 3.9816 3.14918
L_UpperArm  -57.5313 -32.2644 14.43
L_Forearm  -25.1092 4.54496 5.25749
L_Hand  -0.222317 10.5222 -1.34655
L_Thigh  0.939796 -4.38927 -8.1535
L_Calf  -5.33608 -0.475277 3.11616
L_Foot  2.93199 5.23921 6.71789
L_Toe0  -3.36994 0.384883 1.97918
R_Thigh  -2.09314 12.8709 8.54116
R_Calf  -7.64523 8.77785 28.8908
R_Foot  -0.0847678 1.04955 4.17685
R_Toe0  -1.78853 -0.272788 -17.3235
108
root  -6.96391 31.28 1.30034 -82.4634 -1.52351 83.1066
Spine  -7.12325 -10.2055 -0.967427
Spine1  -6.54478 13.7129 -6.17464
Neck  3.97569e-016 0 -2.38542e-015
Head  1.46659 -0.15797 29.8571
R_Clavicle  0.552744 -6.19305 3.04769
R_UpperArm  15.7293 11.5606 73.8012
R_Forearm  30.0824 -17.8185 15.4609
R_Hand  -0.370384 2.87521 -10.4333
L_Clavicle  -0.721149 3.30488 5.63774
L_UpperArm  -61.466 -39.9857 12.561
L_Forearm  -22.596 3.64124 4.20492
L_Hand  -0.1759 9.81612 -1.074
L_Thigh  -0.596814 -3.88452 -14.5002
L_Calf  2.06683 -1.38921 9.84012
L_Foot  2.83222 -0.0786594 13.4876
L_Toe0  4.32838 -0.681669 3.00101
R_Thigh  -3.09503 13.7382 9.19456
R_Calf  -3.07124 10.1267 34.6966
R_Foot  -2.63857 -9.66357 -0.677601
R_Toe0  -1.78853 -0.272788 -17.3235
109
root  -7.69129 30.8984 1.74825 -86.9264 -2.58655 80.8686
Spine  -8.51732 -12.548 0.260881
Spine1  -7.75341 15.0186 -7.07941
Neck  3.97569e-016 0 -2.38542e-015
Head  4.66309 -0.309371 29.2546
R_Clavicle  0.627902 -1.92438 3.29543
R_UpperArm  22.5701 8.8843 75.8973
R_Forearm  24.3174 -16.1196 13.8651
R_Hand  -0.438695 3.69703 -11.9442
L_Clavicle  -0.995379 1.70425 7.53239
L_UpperArm  -61.6436 -44.6155 7.04625
L_Forearm  -19.9285 1.62784 1.8698
L_Hand  -0.228675 9.24787 -1.53949
L_Thigh  -3.9287 -6.50462 -18.391
L_Calf  4.97012 -1.99105 14.3756
L_Foot  4.51066 0.478434 20.2375
L_Toe0  5.04696 -0.235921 -2.75745
R_Thigh  -4.98014 12.7353 9.65965
R_Calf  0.574346 10.1233 34.8276
R_Foot  -2.89911 -14.2104 -4.94135
R_Toe0  -1.78853 -0.272788 -17.3235
110
root  -8.31758 30.9212 2.0007 -88.6716 -3.25755 78.4499
Spine  -10.2518 -14.5283 1.52208
Spine1  -9.11892 16.5737 -7.46521
Neck  3.97569e-016 0 -2.38542e-015
Head  5.68119 0.666076 29.2225
R_Clavicle  0.68929 -0.473892 3.53763
R_UpperArm  25.9383 5.0375 76.0446
R_Forearm  21.177 -15.8974 13.6594
R_Hand  -0.335828 3.58737 -10.7686
L_Clavicle  -1.082 0.45979 7.8237
L_UpperArm  -56.9946 -45.3636 -0.991727
L_Forearm  -17.5806 -1.14291 -1.33339
L_Hand  -0.316698 9.20864 -2.22713
L_Thigh  -7.84131 -9.40334 -17.4305
L_Calf  6.23057 -1.57026 11.2782
L_Foot  4.1597 1.27098 17.1313
L_Toe0  6.53068 -0.828302 0.223149
R_Thigh  -7.3268 10.262 10.4916
R_Calf  0.361994 9.09962 29.7577
R_Foot  -1.99337 -10.3221 -4.53401
R_Toe0  -1.78853 -0.272788 -17.3235
111
root  -8.61319 31.293 2.05877 -86.4714 -3.50401 78.0831
Spine  -12.4282 -14.4417 1.88581
Spine1  -11.2093 19.4106 -6.44055
Neck  3.97569e-016 0 -2.38542e-015
Head  5.93381 1.08036 30.2617
R_Clavicle  0.630713 -2.29569 3.33142
R_UpperArm  24.7341 1.55741 75.1811
R_Forearm  21.5344 -17.4787 15.1401
R_Hand  -0.22092 2.83654 -8.6126
L_Clavicle  -0.969309 -0.482516 6.77852
L_UpperArm  -48.4446 -42.341 -9.99062
L_Forearm  -16.3912 -2.81012 -3.26468
L_Hand  -0.372244 9.49186 -2.59972
L_Thigh  -8.07238 -8.79609 -12.4444
L_Calf  11.453 -0.342094 2.36063
L_Foot  0.889257 -0.795947 5.36543
L_Toe0  12.9761 -3.46132 8.86099
R_Thigh  -6.54235 8.10663 10.1346
R_Calf  -2.77462 7.34179 23.5351
R_Foot  -0.0830813 -1.32368 -2.42446
R_Toe0  -1.78853 -0.272788 -17.3235
112
root  -8.56827 31.6163 2.02312 -82.6514 -4.10696 79.8971
Spine  -14.3482 -13.1889 1.79724
Spine1  -13.3099 23.7072 -4.54297
Neck  3.97569e-016 0 -2.38542e-015
Head  6.22984 0.39139 32.0901
R_Clavicle  0.492705 -5.57374 2.62271
R_UpperArm  19.7505 -0.872485 73.9388
R_Forearm  21.2956 -20.2272 17.8219
R_Hand  -0.0552375 2.62469 -6.3592
L_Clavicle  -0.796826 -1.83251 5.41776
L_UpperArm  -38.2345 -37.0996 -19.1658
L_Forearm  -16.2344 -1.07666 -1.25895
L_Hand  -0.429228 9.74187 -2.97629
L_Thigh  -3.97077 -5.0456 -6.33348
L_Calf  19.3048 0.673272 -5.10089
L_Foot  -1.523 -3.68499 -3.40424
L_Toe0  16.8192 -4.37765 8.11258
R_Thigh  -3.40549 8.30556 8.47752
R_Calf  -2.97555 4.85327 15.2647
R_Foot  0.746606 2.15847 -1.34082
R_Toe0  -1.67159 -0.284953 -17.4277
113
root  -8.43851 31.6466 1.89292 -80.286 -4.85848 80.1467
Spine  -15.9652 -15.1234 1.84668
Spine1  -14.4864 28.7033 -3.17006
Neck  3.97569e-016 0 -2.38542e-015
Head  6.23546 -0.543134 34.1586
R_Clavicle  0.430086 -8.93563 2.20872
R_UpperArm  15.3862 -2.49349 72.616
R_Forearm  17.0195 -22.951 20.1805
R_Hand  0.125213 2.5608 -4.12464
L_Clavicle  -0.629948 -2.45141 4.33846
L_UpperArm  -27.3076 -32.064 -28.2864
L_Forearm  -14.9524 4.44354 5.13596
L_Hand  -0.445391 9.66111 -3.11716
L_Thigh  -1.67878 -2.04322 -0.995376
L_Calf  18.9848 0.92355 -6.91329
L_Foot  -1.38798 -4.5029 -1.64503
L_Toe0  7.10705 -0.799638 -0.0760345
R_Thigh  -1.31952 8.2737 5.425
R_Calf  -1.73596 1.72681 5.39381
R_Foot  1.12796 3.36775 -1.82335
R_Toe0  -2.59163 -0.233874 -16.5986
114
root  -8.33216 31.4624 1.85801 -79.9687 -4.26688 77.764
Spine  -17.5498 -20.8971 1.39772
Spine1  -15.1044 33.563 -2.53057
Neck  3.97569e-016 0 -2.38542e-015
Head  6.15815 -1.46135 36.1106
R_Clavicle  0.441897 -12.2674 2.36263
R_UpperArm  16.3291 -3.92059 71.6843
R_Forearm  12.5258 -24.568 20.7917
R_Hand  0.161566 2.29631 -3.18655
L_Clavicle  -0.508778 -0.868637 3.58027
L_UpperArm  -15.86 -28.1724 -35.8262
L_Forearm  -10.8344 11.3837 13.4368
L_Hand  -0.295373 9.04451 -2.09536
L_Thigh  -4.47356 -0.957074 4.25479
L_Calf  7.77385 0.119208 -0.931111
L_Foot  -0.396639 -3.31193 2.50669
L_Toe0  -0.129157 0.130339 -6.71526
R_Thigh  -1.24374 6.10189 1.12599
R_Calf  -3.68902 -0.489313 -1.50369
R_Foot  1.82771 5.82747 -1.80727
R_Toe0  -9.12671 0.884354 -11.1003
